# xmcd
#
# Track frame offsets: 
#        182
#        12395
#        26622
#        39530
#        53405
#        66870
#        78575
#        90140
#        101272
#        115295
#        129415
#        142110
#        153832
#        187305
#        199397
#        211607
#
# Disc length: 2999 seconds
#
# Revision: 0
# Processed by: cddbd v1.5.2PL0 Copyright (c) Steve Scherf et al.
# Submitted via: ExactAudioCopy v0.99pb3
#
DISCID=d20bb510
DTITLE=Various Artist - The Original Chicago Blues Hits (1952-1966)
DYEAR=1995
DGENRE=Blues
TTITLE0=Eddie Boyd - Five Long Years
TTITLE1=Willie Mabon - I Don't Know
TTITLE2=Muddy Waters - I'm Your Hoochie Coochie Man
TTITLE3=Willie Dixon - Walking The Blues
TTITLE4=Bo Diddley - I'm A Man
TTITLE5=Sonny Boy Williamson - Don't Start Me To Talking 
TTITLE6=Little Walter - My Babe
TTITLE7=J.B. Lenoir - Mama, Talk To Your Daughter
TTITLE8=Howlin' Wolf - Smokestack Lightning
TTITLE9=Otis Rush - I Can't Quit You Baby
TTITLE10=Jimmy Rogers - Walkin' By Myself
TTITLE11=Junior Wells - Little By Little
TTITLE12=Buddy Guy - Stone Crazy
TTITLE13=Jimmy Reed - Bright Lights Big City
TTITLE14=Little Milton - We're Gonna Make It
TTITLE15=Koko Taylor - Wang Dang Doodle
EXTD=
EXTT0=
EXTT1=
EXTT2=
EXTT3=
EXTT4=
EXTT5=
EXTT6=
EXTT7=
EXTT8=
EXTT9=
EXTT10=
EXTT11=
EXTT12=
EXTT13=
EXTT14=
EXTT15=
PLAYORDER=
